<svg version="1.1" id="Layer_1" xmlns="http://www.w3.org/2000/svg" x="0" y="0" viewBox="0 0 56 56" xml:space="preserve"><style>.st3{fill:azure;stroke:#4b92db;stroke-miterlimit:10}</style><path class="st3" d="M19 32.3l-12.7-.1c-1.4 0-2.5-1.1-2.4-2.5l.1-8.1c0-1.4 1.1-2.5 2.5-2.4l12.7.1c1.4 0 2.5 1.1 2.4 2.5l-.1 8.1c0 1.4-1.1 2.5-2.5 2.4zM49.6 32.7l-12.7-.1c-1.4 0-2.5-1.1-2.4-2.5l.1-8.1c0-1.4 1.1-2.5 2.5-2.4l12.7.1c1.4 0 2.5 1.1 2.4 2.5l-.1 8.1c-.1 1.3-1.2 2.5-2.5 2.4z"/><path d="M38.4 28.2L17.3 28c-1 0-1.7-.7-1.7-1.7v-.8c0-1 .7-1.7 1.7-1.7l21.1.2c1 0 1.7.7 1.7 1.7v.8c-.1 1-.9 1.7-1.7 1.7z" fill="#4b92db" stroke="#fff" stroke-miterlimit="10"/></svg>