<svg id="svg1146" xmlns="http://www.w3.org/2000/svg" viewBox="0 0 19.22 17.48"><defs><style>.cls-1{fill:#2726ff;}.cls-2{fill:#fff;}</style></defs><path class="cls-1" d="M11.74,9.66A2.11,2.11,0,0,0,9.69,11.6H5.08a.88.88,0,0,1-.82-.82V7c.21,0,.31.1.62.1H9.8a2,2,0,1,0,1.94-2.46A2,2,0,0,0,9.8,6.27H5.08a.88.88,0,0,1-.82-.82V3.71H6.42A.79.79,0,0,0,7.24,3,.83.83,0,0,0,7,2.48a.79.79,0,0,0-.51-.2h-5c-.41,0-.92.2-.92.72a.72.72,0,0,0,.81.71H3.14v7.07a1.62,1.62,0,0,0,1.64,1.64h5a2.24,2.24,0,0,0,1.94,1.33,1.86,1.86,0,0,0,1.44-.61,2.54,2.54,0,0,0,.61-1.44,1.85,1.85,0,0,0-.61-1.43A1.72,1.72,0,0,0,11.74,9.66Z" transform="translate(2.42 2.22)"/><path class="cls-2" d="M11.74,5.45A1.32,1.32,0,0,1,13,6.68a1.31,1.31,0,0,1-1.23,1.23,1.32,1.32,0,0,1-1.23-1.23A1.33,1.33,0,0,1,11.74,5.45Zm0,7.48a1.32,1.32,0,0,1-1.23-1.23,1.32,1.32,0,0,1,1.23-1.22A1.31,1.31,0,0,1,13,11.7,1.24,1.24,0,0,1,11.74,12.93Z" transform="translate(2.42 2.22)"/></svg>
