<?xml version="1.0" encoding="UTF-8" standalone="no"?>
<svg
   t="1640281031112"
   class="icon"
   viewBox="0 0 1024 1024"
   version="1.1"
   p-id="3002"
   width="200"
   height="200"
   id="svg16"
   xmlns="http://www.w3.org/2000/svg"
   xmlns:svg="http://www.w3.org/2000/svg">
  <defs
     id="defs4">
    <style
       type="text/css"
       id="style2" />
  </defs>
  <path
     d="M352.384 316.245333a211.072 211.072 0 0 1 160.256 15.914667A210.389333 210.389333 0 0 1 614.4 456.533333a29.226667 29.226667 0 0 0 35.797333 21.333334 29.525333 29.525333 0 0 0 21.589334-35.797334 22.997333 22.997333 0 0 0-0.768-2.517333 269.056 269.056 0 0 0-336.810667-176.981333 270.250667 270.250667 0 0 0-178.218667 332.544 29.397333 29.397333 0 0 0 28.245334 21.333333 28.842667 28.842667 0 0 0 8.533333-1.28 29.866667 29.866667 0 0 0 19.754667-36.864 210.005333 210.005333 0 0 1 139.861333-262.058667z"
     p-id="3003"
     id="path6" />
  <path
     d="M590.336 812.8h-0.768a209.962667 209.962667 0 0 1-121.770667-401.92 29.568 29.568 0 1 0-14.208-57.386667 23.509333 23.509333 0 0 0-2.432 0.768 269.184 269.184 0 0 0 76.544 527.232 272.64 272.64 0 0 0 77.184-11.349333l2.048-0.597333a29.568 29.568 0 0 0-16.597333-56.746667z"
     p-id="3004"
     id="path8" />
  <path
     d="M866.901333 421.248a29.397333 29.397333 0 0 0-14.293333-17.536 29.013333 29.013333 0 0 0-22.485333-2.304 29.568 29.568 0 0 0-19.882667 36.778667l0.298667 1.024a209.962667 209.962667 0 1 1-398.677334 131.797333l-1.152-3.541333a29.525333 29.525333 0 0 0-37.162666-19.157334 29.610667 29.610667 0 0 0-19.072 37.248 268.373333 268.373333 0 0 0 340.096 170.666667 270.464 270.464 0 0 0 172.330666-334.976z"
     p-id="3005"
     id="path10" />
  <path
     d="M425.856 212.778667V213.333333l4.949333-1.536a209.962667 209.962667 0 0 1 128.341334 399.829334 29.610667 29.610667 0 0 0-5.632 54.357333 29.866667 29.866667 0 0 0 13.994666 3.541333 28.842667 28.842667 0 0 0 8.533334-1.28l-1.066667-3.626666 2.176 3.328A269.141333 269.141333 0 1 0 412.757333 155.349333a29.568 29.568 0 0 0 13.098667 57.429334zM576 664.234667z"
     p-id="3006"
     id="path12" />
  <path
     d="M565.205333 512.298667a53.717333 53.717333 0 0 0-107.392 0 53.717333 53.717333 0 1 0 107.392 0z"
     p-id="3007"
     id="path14" />
</svg>
